# xmcd
#
# Track frame offsets:
#	150
#	20587
#	40282
#	62552
#	80032
#	96587
#	117400
#	132457
#	154540
#	170947
#	189102
#	211712
#	230190
#	249080
#	268947
#	285692
#
# Disc length: 4088 seconds
#
# Revision: 1
# Processed by: cddbd v1.5.1PL0 Copyright (c) Steve Scherf et al.
# Submitted via: CDex 1.50Beta5
#
DISCID=ea0ff610
DTITLE=鳥羽一郎 - 鳥羽一郎全曲集
DYEAR=2002
DGENRE=World
TTITLE0=河内一代男
TTITLE1=男の港
TTITLE2=志摩半島
TTITLE3=南十字星
TTITLE4=山陽道
TTITLE5=海の祈り
TTITLE6=流氷・オホーツク
TTITLE7=カサブランカ・グッバイ
TTITLE8=兄弟船
TTITLE9=おれの人生始発駅
TTITLE10=泉州春木港
TTITLE11=下北漁港
TTITLE12=東海道
TTITLE13=海峡の春
TTITLE14=花いちもんめ
TTITLE15=北のつがい鳥
EXTD=
EXTT0=
EXTT1=
EXTT2=
EXTT3=
EXTT4=
EXTT5=
EXTT6=
EXTT7=
EXTT8=
EXTT9=
EXTT10=
EXTT11=
EXTT12=
EXTT13=
EXTT14=
EXTT15=
PLAYORDER=
